<?xml version="1.0" encoding="UTF-8"?><svg id="a" xmlns="http://www.w3.org/2000/svg" width="816.7" height="225.6" viewBox="0 0 816.7 225.6"><g id="b"><path d="M336.9,88.9c-2.4,0-3.8-1.1-5.4-5.4-1.7-4.1-3.5-8.8-8.7-11.8-5.6-3.2-14.3-3.2-26.7-3.2h-1.7c-3,0-3.6,1.2-3.6,3.6v32.7c0,3,.9,4.2,3.9,4.2s9.6,0,14.9-.3c6.8-.5,11.5-1.1,14.5-1.1s2.7.1,3.6.8c.9.6,1.2,1.5,1.2,2.6s-.2,2-.3,3c-.3,2.1-.3,4.2-2,5.5-1.2.9-3.3,1.1-6.2,1.1-6,0-11-.8-19.8-.8s-5.4,0-7.8.1c-1.4.2-2.1.8-2.1,2.1v16.2c0,10.4.8,13.5,1.7,15.6.9,2.1,2.6,3.9,5.1,5.5,1.8,1.1,3.3,2,3.3,3.9s-2.3,3.3-5.3,3.3h-29.8c-3,0-5.3-1.1-5.3-3.3s1.5-2.9,3.3-3.9c2.6-1.5,4.2-3.3,5.1-5.5.9-2.1,1.8-5.1,1.8-15.6v-60.2c0-6.5-.3-9.4-4.4-11.8-2.3-1.4-4.8-2-4.8-4.5s1.5-3.2,4.5-3.2h39.5c15.5,0,25.2-1.1,30.2-1.1s5.7.9,5.9,4.8l.5,10.6c.1,3.3.3,7.1.3,10.6s-2.1,5.4-5.4,5.4" fill="#3f4372"/><path d="M431.3,163.2c0,1.8-1.2,3.3-5,3.3h-29.6c-2.7,0-4.5-1.1-4.5-3s1.1-2.4,2.3-3.2c1.2-.8,2.4-1.4,3.3-2.3.9-.9,1.4-1.8,1.4-3.2s-.6-3.9-2-7.4l-4.8-12.7c-.6-1.5-1.4-2.3-3.6-2.3h-36c-1.2,0-1.8.5-2.4,2-3.6,8.8-5,14.2-5,17.9s.3,2.7.8,3.6c1.4,2.7,3.3,3.5,4.7,4.4,1.4.9,2,1.7,2,3,0,2.3-2.3,3.2-5.1,3.2h-23.1c-3,0-5.1-.9-5.1-3.3s1.1-2.4,2.6-3.5c2.4-1.7,4.7-3.2,7.7-7.9,2.3-3.5,4.7-7.9,7.1-13.3l35.1-79.1c.6-1.5,1.4-2.1,2.9-2.1h7.4c1.5,0,2.4.6,2.9,2,2,5.1,30,79.1,32.7,85.6,2.9,7,4.1,9.8,6.6,12.3,1.4,1.4,3.2,2.1,4.5,2.9,1.3.8,2.4,1.5,2.4,3.2M356.8,119c-.5,1.1-.9,2-.9,2.4s.6.9,1.4.9h28.8c.6,0,1.2-.1,1.2-.8s-.2-.8-.3-1.2l-14-37.1c-.2-.3-.3-.5-.6-.5s-.4.2-.6.5l-14.9,35.7Z" fill="#3f4372"/><path d="M475.8,163.2c0,2.3-2.3,3.3-5.3,3.3h-29.7c-3,0-5.3-1.1-5.3-3.3s1.7-2.9,3.3-3.9c2.6-1.7,4.2-3.3,5.1-5.4.9-2.3,1.7-5.1,1.7-15.7v-59.2c0-7.1-.3-10.3-4.1-12.7-2.6-1.7-5.1-2-5.1-4.7s1.4-3,4.5-3h29.3c3.2,0,4.7,1.2,4.7,3,0,2.7-2.6,3-5.1,4.7-3.8,2.4-4.1,5.6-4.1,12.7v59.2c0,10.6.8,13.5,1.7,15.7.9,2.1,2.7,3.9,5.1,5.4,1.7,1.1,3.3,1.8,3.3,3.9" fill="#3f4372"/><path d="M606.7,163.2c0,2.3-2.1,3.3-5.1,3.3h-30c-3,0-5.1-1.1-5.1-3.3s1.5-2.9,3.3-3.9c2.6-1.4,4.2-3.3,5-5.4.9-2.1,1.8-5.1,1.8-20.1v-56.3c0-.5-.3-.8-.6-.8s-.6.1-.8.6l-29.7,69c-1,2.4-1.7,2.7-3.5,2.7h-5.3c-2.1,0-2.7-.4-3.6-2.7l-29.5-69.1c-.2-.3-.3-.5-.6-.5-.5,0-.8.3-.8.8,0,5.4,0,46.9.5,61.9.4,13.9,4.5,16.6,9.5,19.1,2.6,1.2,5.4,2.1,5.4,4.7s-2.1,3.5-5.4,3.5h-25.8c-3.9,0-5.7-1.2-5.7-3.3,0-3,3.5-3.5,5.9-6.5,3.2-3.9,4.8-10.3,5-26.6.2-13,.2-53.4.2-56.7s0-3-.6-4.1c-.6-1.1-1.7-1.8-3.5-2.6-2.6-1.1-5.7-2-5.7-4.8s2-3.3,5.3-3.3h25c3.6,0,4.8.8,5.7,3l25.6,58.6c.1.3.3.6.7.6s.6-.2.8-.5l25.3-58.6c1.1-2.3,2.6-3.2,4.7-3.2h26.2c3,0,4.5,1.4,4.5,3,0,2.7-2.4,3-5.1,4.7-4.1,2.7-4.1,6.5-4.1,15.9v56.1c0,10.4.9,13.5,1.8,15.6.8,2.1,2.6,4.1,5,5.4,1.8,1.1,3.3,2,3.3,3.9" fill="#3f4372"/><path d="M697.3,139.6c0,1.2-.3,2.7-.8,4.7-2.4,9.4-2,18.8-6.9,22.2-1.4.9-2.9,1.2-5,1.2-4.4,0-11.6-1.2-26.8-1.2h-41.5c-3,0-5.3-.9-5.3-3.3s1.8-3,3.3-3.9c2.9-1.7,4.1-3,5.1-5.5.9-2.1,1.8-5.1,1.8-15.6v-58.6c0-7,0-10.7-4.4-13.5-2.3-1.4-4.8-2-4.8-4.5s1.5-3.2,4.5-3.2h39.5c16.7,0,27.1-1.1,30.8-1.1s5.3,2,5.4,4.8c.1,2.4.1,7.4.1,10.4s.5,8.3.5,11.3-2.1,4.8-4.8,4.8-4.4-1.1-6.5-5.9c-1.2-2.6-2.7-8.2-8.3-11.3-4.7-2.7-11.9-3.2-21.7-3.2h-6.6c-3,0-3.6,1.2-3.6,3.6v28.6c0,3.8,2.9,3.9,6.6,3.9h.9c3.5,0,7.5-.1,11.3-.4,6.6-.5,11.3-.9,14.3-.9s5,.6,5,3.3-.1,2-.3,3c-.3,2.1,0,3.9-2,5.4-1.1.8-3.2,1.1-6,1.1-6.5,0-10.9-.8-19.9-.8s-5.6,0-7.8.1c-1.4.2-2.1.9-2.1,2.1v24.4c0,7.6.2,11.5,2.9,13.2,1.5.9,5,1.2,8.6,1.2s9.8-.5,12.7-1.1c10.3-2.1,14.2-6.5,20.1-15.6,2.3-3.5,4.1-5,6.5-5s1.7.1,2.4.5c2,.8,2.9,2.1,2.9,4.4" fill="#3f4372"/><path d="M797.7,163.3c0,2.4-2.4,3.2-4.4,3.2h-12.8c-5.3,0-8.4-1.4-11-5.5-2.4-3.8-5.9-13-10.4-23.6-5.1-11.8-10.4-18.9-19-20.6-1.8-.3-4.2-.5-6.5-.5s-3,0-3.9.2c-1.2.2-1.8.8-1.8,2.1v19.2c0,10.6.8,13.9,1.8,16,1.1,2.1,2.9,3.9,5.1,5.3,2,1.2,3.2,2.1,3.2,3.9s-2.1,3.3-5,3.3h-30.3c-2.9,0-5-1.1-5-3.3s1.2-2.7,3.2-3.9c2.1-1.4,4.1-3,5.1-5.3,1.1-2.3,1.8-5.4,1.8-16v-57.5c0-8.2,0-11.5-4.4-14.2-2.3-1.5-4.8-2-4.8-4.5s1.5-3.2,4.5-3.2h24.7c5.3,0,11.8-.2,15.8-.2,10.9,0,22.6.9,30.3,7.3,6.3,5.1,8.7,12.3,8.7,18.8s-.9,7.9-2.4,10.7c-4.4,8.9-13,13.5-22.2,14.7-.9.1-1.4.3-1.4.9s.3.8,1.4.9c11.6,1.5,16.3,9.2,23.2,25.7,6.9,16.3,8.7,19.4,11.9,21.5,1.8,1.2,4.4,2,4.4,4.5M760.8,86.6c0-15.9-11.6-18-22.3-18h-7.8c-2,0-2.7.8-2.7,2.4v33.1c0,1.2.6,2,2.1,2h8c11,0,22.8-4.5,22.8-19.5" fill="#3f4372"/></g><g id="c"><path d="M112.8,225.6C50.6,225.6,0,175,0,112.8S50.6,0,112.8,0s112.8,50.6,112.8,112.8-50.6,112.8-112.8,112.8M112.8,5.8C53.8,5.8,5.8,53.8,5.8,112.8s48,107.1,107.1,107.1,107.1-48,107.1-107.1S171.9,5.8,112.8,5.8" fill="#3f4372"/><path d="M124.6,182.5h-24.7c-4.1,0-7.5-3.4-7.5-7.5v-28.6h5.1v28.6c0,1.3,1.1,2.4,2.4,2.4h24.7c1.3,0,2.4-1.1,2.4-2.4v-67.2c0-1.3-1.1-2.4-2.4-2.4h-24.7c-1.3,0-2.4,1.1-2.4,2.4v21.5h-5.1v-21.5c0-4.1,3.4-7.5,7.5-7.5h24.7c4.1,0,7.5,3.4,7.5,7.5v67.2c0,4.1-3.4,7.5-7.5,7.5" fill="#3f4372"/><path d="M112.4,90.3c-14.6,0-23.4-8.9-23.4-23.7s8.7-23.5,23.4-23.5,23.4,8.8,23.4,23.5-9,23.7-23.4,23.7M112.4,48.3c-11.8,0-18.2,6.5-18.2,18.3s6.5,18.5,18.2,18.5,18.2-6.8,18.2-18.5-6.5-18.3-18.2-18.3" fill="#3f4372"/><path d="M167.9,140h-28.3v-5.1h28.3c.9,0,1.6-.7,1.6-1.6v-26.2c0-.9-.7-1.6-1.6-1.6h-28.3v-5.1h28.3c3.7,0,6.8,3,6.8,6.8v26.2c0,3.7-3,6.8-6.8,6.8" fill="#ed693a"/><path d="M119.4,140h-62.7c-3.7,0-6.8-3-6.8-6.8v-26.2c0-3.7,3-6.8,6.8-6.8h28.3v5.1h-28.3c-.9,0-1.6.7-1.6,1.6v26.2c0,.9.7,1.6,1.6,1.6h62.7v5.1Z" fill="#64c9d7"/></g><g id="d"><path d="M450.9,212.5c0-.1,0-.3,0-.5l9.3-25.7c0-.2.2-.4.3-.5.1,0,.3-.1.5-.1h3.7c.5,0,.8.2.9.6l9.2,25.7c0,.2,0,.3,0,.5,0,.2-.2.2-.4.2h-3.4c-.3,0-.5-.1-.6-.4l-2.3-6.5c0-.1,0-.2-.1-.3,0,0-.2,0-.3,0h-10.1c-.2,0-.4,0-.4.3l-2.4,6.6c0,.1-.1.2-.2.3,0,0-.2,0-.4,0h-2.8c-.2,0-.3,0-.4-.2ZM466.5,202c.3,0,.4-.2.3-.5l-3.9-10.9c0-.2-.2-.3-.3-.3s-.2.1-.2.3l-4,10.9c-.1.3,0,.5.3.5h7.9Z" fill="#3f4372"/><path d="M488.8,185.6c.6,0,1.2,0,1.9,0s1.3,0,1.9,0h1.3c3.3,0,6,.6,8.1,1.7,2.1,1.1,3.6,2.6,4.6,4.5,1,1.9,1.5,4.3,1.5,7.1s-.5,5.5-1.6,7.5-2.7,3.6-4.8,4.6c-2.2,1-4.9,1.6-8.2,1.6h-6.1c-.4,0-.7-.2-.7-.7v-25.8c0-.2,0-.4.1-.5,0,0,.3-.1.5-.1h1.3ZM491.3,189.4v19.7c0,.3.1.4.4.4h1.2c2.5,0,4.5-.3,6.1-1,1.6-.7,2.7-1.8,3.5-3.3.8-1.5,1.1-3.5,1.1-6s-.4-4.6-1.1-6.1c-.8-1.5-1.9-2.5-3.4-3.2-1.5-.6-3.5-1-5.9-1h-1.5c-.2,0-.4.2-.4.5Z" fill="#3f4372"/><path d="M516.7,189.5c0,.5-.2.8-.7.8h-2.7c-.3,0-.4,0-.5-.2s-.1-.3-.1-.5v-3.3c0-.4.2-.6.5-.6h3c.3,0,.5.2.5.6v3.3ZM516.6,212c0,.3,0,.5-.2.5-.1,0-.3.1-.6.1h-2.5c-.3,0-.4,0-.5-.1,0,0-.1-.2-.1-.5v-18.2c0-.4.2-.5.5-.5h2.9c.3,0,.4.2.4.5v18.1Z" fill="#3f4372"/><path d="M538.3,193.6c0,.1,0,.3,0,.4l-7.4,18.1c-.1.4-.5.6-.9.6h-1.7c-.5,0-.8-.2-1-.6l-7.3-18.1c0-.2,0-.4,0-.5s.2-.2.4-.2h3c.1,0,.3,0,.4.1.1,0,.2.2.2.3l5.3,13.2c.2.5.4.5.6,0l5.2-13.2c0-.1.2-.2.3-.3,0,0,.2-.1.4-.1h2.2c.2,0,.3,0,.4.2Z" fill="#3f4372"/><path d="M545.6,189.5c0,.5-.2.8-.7.8h-2.7c-.3,0-.4,0-.5-.2s-.1-.3-.1-.5v-3.3c0-.4.2-.6.5-.6h3c.3,0,.5.2.5.6v3.3ZM545.5,212c0,.3,0,.5-.2.5-.1,0-.3.1-.6.1h-2.5c-.3,0-.4,0-.5-.1,0,0-.1-.2-.1-.5v-18.2c0-.4.2-.5.5-.5h2.9c.3,0,.4.2.4.5v18.1Z" fill="#3f4372"/><path d="M560.2,196.2c-.8-.4-1.8-.7-3-.7s-2.2.2-3,.7c-.8.5-1.2,1.2-1.2,2s.2.8.5,1.2c.3.4,1.1.8,2.2,1.1l4.5,1.3c1.8.5,3.1,1.2,3.8,2.1.8.9,1.2,2,1.2,3.2s-.3,2.3-1,3.1c-.7.9-1.7,1.5-2.9,2-1.2.5-2.6.7-4.2.7s-3.7-.4-5.2-1.1c-1.5-.8-2.5-1.7-3.1-2.9,0-.1,0-.3,0-.4s0-.2.1-.3l1.8-.9c.2,0,.3-.1.4-.1.1,0,.2,0,.2.2.4.6.8,1.1,1.3,1.5.5.4,1.1.8,1.9,1,.7.3,1.6.4,2.6.4s1.6-.1,2.3-.3c.7-.2,1.2-.6,1.6-1,.4-.4.6-.9.6-1.5s-.2-1.1-.7-1.5c-.5-.4-1.3-.8-2.5-1.1l-3.7-.9c-1.8-.5-3.2-1.2-4-2-.8-.9-1.2-1.9-1.2-3.1s.3-2.2.9-3.1,1.5-1.6,2.7-2.1c1.2-.5,2.5-.8,4.1-.8s3.2.3,4.5,1,2.3,1.5,2.9,2.5c0,0,.1.2.1.3,0,.1,0,.2-.2.3l-1.9,1c0,0-.2,0-.3,0-.1,0-.2,0-.3-.2-.5-.7-1.1-1.2-1.9-1.7Z" fill="#3f4372"/><path d="M573.1,189.5c0,.5-.2.8-.7.8h-2.7c-.3,0-.4,0-.5-.2s-.1-.3-.1-.5v-3.3c0-.4.2-.6.5-.6h3c.3,0,.5.2.5.6v3.3ZM573,212c0,.3,0,.5-.2.5-.1,0-.3.1-.6.1h-2.5c-.3,0-.4,0-.5-.1,0,0-.1-.2-.1-.5v-18.2c0-.4.2-.5.5-.5h2.9c.3,0,.4.2.4.5v18.1Z" fill="#3f4372"/><path d="M581.4,211.8c-1.4-.8-2.5-2-3.3-3.5-.8-1.5-1.2-3.2-1.2-5.2s.4-3.8,1.2-5.3c.8-1.5,1.9-2.7,3.3-3.6,1.4-.9,3-1.3,4.9-1.3s3.5.4,4.9,1.3c1.4.9,2.5,2.1,3.3,3.6.8,1.5,1.2,3.3,1.2,5.2s-.4,3.7-1.2,5.2c-.8,1.5-1.9,2.7-3.3,3.5-1.4.9-3.1,1.3-4.9,1.3s-3.5-.4-4.9-1.3ZM589.3,209.5c.8-.6,1.4-1.4,1.8-2.5s.6-2.4.6-3.9-.2-2.8-.6-3.9c-.4-1.1-1-1.9-1.9-2.5-.8-.6-1.8-.9-2.9-.9s-2.1.3-2.9.9c-.8.6-1.4,1.4-1.9,2.5-.4,1.1-.7,2.4-.7,3.9s.2,2.8.7,3.9c.4,1.1,1.1,1.9,1.9,2.5.8.6,1.8.9,3,.9s2.1-.3,2.9-.9Z" fill="#3f4372"/><path d="M599.6,212.1v-18.2c0-.4.2-.5.5-.5h2.9c.3,0,.4.2.4.5v2c0,.1,0,.2,0,.2,0,0,.2,0,.3-.1.8-.6,1.5-1.1,2.2-1.6.7-.4,1.4-.8,2.1-1,.7-.2,1.5-.3,2.3-.3,1.8,0,3.3.5,4.3,1.5,1,1,1.5,2.4,1.5,4v13.5c0,.4-.2.7-.6.7h-2.7c-.2,0-.3,0-.4-.1,0,0-.1-.2-.1-.5v-12.8c0-1.1-.3-1.9-.8-2.5-.6-.6-1.4-.9-2.6-.9s-1.3.1-1.8.3c-.6.2-1.1.5-1.7.9s-1.2.9-1.9,1.5v13.4c0,.4-.2.6-.7.6h-2.6c-.4,0-.6-.2-.6-.6Z" fill="#3f4372"/><path d="M631.8,211.8c-1.4-.8-2.5-2-3.3-3.5-.8-1.5-1.2-3.2-1.2-5.2s.4-3.8,1.2-5.3c.8-1.5,1.9-2.7,3.3-3.6,1.4-.9,3-1.3,4.9-1.3s3.5.4,4.9,1.3c1.4.9,2.5,2.1,3.3,3.6.8,1.5,1.2,3.3,1.2,5.2s-.4,3.7-1.2,5.2c-.8,1.5-1.9,2.7-3.3,3.5-1.4.9-3.1,1.3-4.9,1.3s-3.5-.4-4.9-1.3ZM639.8,209.5c.8-.6,1.4-1.4,1.8-2.5s.6-2.4.6-3.9-.2-2.8-.6-3.9c-.4-1.1-1-1.9-1.9-2.5-.8-.6-1.8-.9-2.9-.9s-2.1.3-2.9.9c-.8.6-1.4,1.4-1.9,2.5-.4,1.1-.7,2.4-.7,3.9s.2,2.8.7,3.9c.4,1.1,1.1,1.9,1.9,2.5.8.6,1.8.9,3,.9s2.1-.3,2.9-.9Z" fill="#3f4372"/><path d="M660.2,193.5c0,0,.1.2.1.3v1.9c0,.3-.2.4-.5.4h-3.8c-.2,0-.3.1-.3.3v15.6c0,.4-.2.6-.5.6h-3c-.3,0-.4-.2-.4-.5v-15.8c0-.2,0-.3-.3-.3h-3.3c-.3,0-.4-.1-.4-.4v-1.9c0-.1,0-.3.1-.3,0,0,.2-.1.4-.1h3.1c.2,0,.4-.1.4-.4v-2.5c0-1.5.4-2.7,1.2-3.5s2-1.2,3.6-1.2h3.2c.4,0,.5.2.5.5v1.7c0,.1,0,.2,0,.3s-.2.1-.4.1h-2.3c-.7,0-1.2.2-1.6.7-.3.5-.5,1.1-.5,1.8v2.2c0,.2.1.3.4.3h3.8c.2,0,.3,0,.4.1Z" fill="#3f4372"/><path d="M675.6,185.6c.3,0,.5.2.5.5v25.8c0,.3,0,.5-.2.5-.1,0-.3.1-.6.1h-3c-.3,0-.4,0-.5-.1,0,0-.1-.2-.1-.5v-25.9c0-.4.2-.5.5-.5h3.4Z" fill="#3f4372"/><path d="M681.7,212.1v-18.2c0-.4.2-.5.5-.5h2.9c.3,0,.4.2.4.5v2c0,.1,0,.2,0,.2s.2,0,.3-.1c.8-.6,1.5-1.1,2.2-1.6.7-.4,1.4-.8,2.1-1,.7-.2,1.5-.3,2.3-.3,1.8,0,3.3.5,4.3,1.5,1,1,1.5,2.4,1.5,4v13.5c0,.4-.2.7-.6.7h-2.7c-.2,0-.3,0-.4-.1,0,0-.1-.2-.1-.5v-12.8c0-1.1-.3-1.9-.8-2.5-.6-.6-1.4-.9-2.6-.9s-1.3.1-1.8.3c-.6.2-1.1.5-1.7.9-.6.4-1.2.9-1.9,1.5v13.4c0,.4-.2.6-.7.6h-2.6c-.4,0-.6-.2-.6-.6Z" fill="#3f4372"/><path d="M708.5,196.1c-.2,0-.3.1-.3.4v10.7c0,1,.2,1.8.6,2.1.4.4,1,.6,1.8.6h2.3c.1,0,.3,0,.3.1,0,0,.1.2.1.3v1.6c0,.3-.2.5-.5.6-.3,0-.7,0-1.2.1s-.9,0-1.4,0c-.5,0-.8,0-1.2,0-1.6,0-2.8-.4-3.6-1.1-.8-.7-1.2-1.9-1.2-3.4v-11.6c0-.3-.1-.4-.4-.4h-2.7c-.3,0-.5-.1-.5-.4v-1.9c0-.3.1-.4.4-.4h2.9c.2,0,.3-.1.3-.3l.4-5.7c0-.3.2-.5.4-.5h2.5c.3,0,.5.2.5.6v5.7c0,.2.1.3.3.3h4.4c.3,0,.4.1.4.4v1.9c0,.3-.2.4-.5.4h-4.4Z" fill="#3f4372"/><path d="M720.1,207.4c.5.9,1.2,1.6,2.1,2.1.9.5,1.9.8,3,.8s2.1-.2,3-.7c.9-.5,1.7-1.2,2.4-2.2,0,0,.1-.2.2-.2s.2,0,.3,0l1.9.9c.3.1.3.3,0,.6-.7,1-1.4,1.8-2.2,2.4-.8.6-1.7,1.1-2.7,1.4-1,.3-2.1.4-3.3.4-1.8,0-3.5-.4-4.9-1.2-1.4-.8-2.5-2-3.3-3.5-.8-1.5-1.2-3.2-1.2-5.1s.4-3.9,1.2-5.5c.8-1.5,2-2.7,3.4-3.5,1.4-.8,3-1.3,4.8-1.3s3.4.4,4.7,1.2c1.3.8,2.4,1.9,3.2,3.4s1.1,3.3,1.1,5.4,0,.4,0,.6c0,.2-.2.2-.5.2h-13.5c-.1,0-.2,0-.3.2,0,.1,0,.2,0,.4,0,1.1.3,2.1.8,3ZM729.3,201.5c.3,0,.4,0,.5-.1,0,0,.1-.2.1-.4,0-.9-.2-1.8-.6-2.6-.4-.8-1-1.5-1.7-2s-1.7-.8-2.8-.8-2.1.3-2.9.8c-.8.5-1.4,1.3-1.9,2.2-.4.9-.6,1.9-.6,2.9h9.9Z" fill="#3f4372"/><path d="M745.5,212.4c-1,.4-2.2.7-3.5.7-1.9,0-3.3-.5-4.4-1.5-1.1-1-1.6-2.2-1.6-3.8s.4-2.5,1.1-3.4,1.9-1.7,3.4-2.3c1.5-.6,3.3-.9,5.4-1l2.4-.2c.1,0,.3,0,.4-.1.1,0,.2-.2.2-.4v-.9c0-1.2-.4-2.1-1.1-2.8s-1.7-1-3-1-1.8.2-2.6.7c-.8.4-1.5,1.1-2.2,2,0,.1-.1.2-.2.3,0,0-.2,0-.4,0l-2.5-.7c0,0-.2-.1-.2-.2,0,0,0-.2,0-.5.7-1.3,1.7-2.3,3.1-3,1.4-.7,3.1-1.1,5.1-1.1s3.2.2,4.3.7c1.1.5,2,1.2,2.5,2.2.5.9.8,2,.8,3.3v12.9c0,.2,0,.4-.1.5,0,0-.2.1-.4.1h-2.5c-.2,0-.3,0-.4-.2,0-.1-.2-.3-.2-.5v-1.4c-.1-.4-.3-.4-.7,0-.9.8-1.8,1.5-2.8,1.9ZM748.3,203.1h-2c-1,.2-1.9.3-2.7.5-.8.2-1.5.5-2.1.8-.6.3-1,.7-1.3,1.2-.3.5-.5,1-.5,1.7,0,.9.3,1.7,1,2.2.7.5,1.6.8,2.7.8s1.4-.1,2.1-.4c.6-.3,1.2-.6,1.7-1,.5-.4.9-.8,1.1-1.3.3-.4.4-.9.4-1.3v-2.8c0-.4-.2-.6-.5-.5Z" fill="#3f4372"/><path d="M761.2,212c0,.3,0,.5-.2.5-.1,0-.3.1-.6.1h-2.5c-.4,0-.7-.2-.7-.6v-25.9c0-.4.2-.5.5-.5h2.9c.3,0,.5.2.5.5v25.8Z" fill="#3f4372"/><path d="M772.3,196.1c-.2,0-.3.1-.3.4v10.7c0,1,.2,1.8.6,2.1.4.4,1,.6,1.8.6h2.3c.1,0,.3,0,.3.1,0,0,.1.2.1.3v1.6c0,.3-.2.5-.5.6-.3,0-.7,0-1.2.1s-.9,0-1.4,0c-.5,0-.8,0-1.2,0-1.6,0-2.8-.4-3.6-1.1-.8-.7-1.2-1.9-1.2-3.4v-11.6c0-.3-.1-.4-.4-.4h-2.7c-.3,0-.5-.1-.5-.4v-1.9c0-.3.1-.4.4-.4h2.9c.2,0,.3-.1.3-.3l.4-5.7c0-.3.2-.5.4-.5h2.5c.3,0,.5.2.5.6v5.7c0,.2.1.3.3.3h4.4c.3,0,.4.1.4.4v1.9c0,.3-.2.4-.5.4h-4.4Z" fill="#3f4372"/><path d="M780.7,212.1v-25.9c0-.4.1-.5.4-.5h2.9c.3,0,.4.2.4.5v9.6c0,.1,0,.2,0,.2,0,0,.2,0,.3-.1.8-.7,1.6-1.2,2.3-1.6s1.4-.7,2.1-.9c.7-.2,1.4-.3,2.2-.3,1.9,0,3.3.5,4.3,1.5,1,1,1.5,2.4,1.5,4.1v13.4c0,.4-.2.7-.6.7h-2.7c-.2,0-.3,0-.4-.1,0,0-.1-.2-.1-.5v-12.8c0-1.1-.3-1.9-.8-2.5-.5-.6-1.4-.9-2.6-.9s-1.3.1-1.8.3c-.6.2-1.1.5-1.7.9-.6.4-1.2.9-1.8,1.5v13.4c0,.4-.2.6-.7.6h-2.6c-.4,0-.6-.2-.6-.6Z" fill="#3f4372"/></g><g id="e"><path d="M803,75.2c-1.4-.8-2.5-1.9-3.3-3.3-.8-1.4-1.2-2.9-1.2-4.6s.4-3.2,1.2-4.6,1.9-2.5,3.3-3.3,2.9-1.2,4.6-1.2,3.2.4,4.6,1.2c1.4.8,2.5,1.9,3.3,3.3.8,1.4,1.2,2.9,1.2,4.6s-.4,3.2-1.2,4.6c-.8,1.4-1.9,2.5-3.3,3.3-1.4.8-2.9,1.2-4.6,1.2s-3.2-.4-4.6-1.2ZM811.3,73.6c1.1-.6,1.9-1.4,2.5-2.5.6-1.1.9-2.4.9-3.8s-.3-2.7-.9-3.8c-.6-1.1-1.4-1.9-2.5-2.5-1.1-.6-2.3-.9-3.7-.9s-2.6.3-3.7.9c-1.1.6-1.9,1.4-2.5,2.5-.6,1.1-.9,2.4-.9,3.8s.3,2.7.9,3.8c.6,1.1,1.4,1.9,2.5,2.5,1.1.6,2.3.9,3.7.9s2.6-.3,3.7-.9ZM811.2,71.8c0,0,0,0-.2,0h-1.5c-.1,0-.2,0-.2-.2l-1.4-3.8c0,0,0,0,0-.1,0,0-.1,0-.3,0h-1.5c-.1,0-.2,0-.2.2v3.7c0,.2,0,.2-.2.2h-1.4c-.1,0-.2,0-.2-.2v-8.7c0-.1,0-.2.2-.2h4c1,0,1.8.2,2.3.6.6.4.8,1,.8,1.7s-.2,1.2-.5,1.6c-.4.4-.8.6-1.2.8,0,0,0,0,0,.2l1.6,3.9c0,0,0,.1,0,.2ZM809.1,66.2c.3-.2.4-.4.4-.8s-.1-.6-.3-.8c-.2-.2-.6-.3-1.3-.3h-1.8c0,0-.1,0-.2,0,0,0,0,0,0,.2v1.9c0,.1,0,.2.2.2h1.9c.4,0,.8,0,1.1-.2Z" fill="#3f4372"/></g></svg>