<?xml version="1.0" encoding="UTF-8"?>
<svg width="1600" height="900" viewBox="0 0 1600 900" fill="none" xmlns="http://www.w3.org/2000/svg">
  <rect width="1600" height="900" fill="#F7F2EA"/>
  <rect x="0" y="0" width="1600" height="18" fill="#D97624"/>
  <rect x="1135" y="86" width="360" height="728" rx="36" fill="#16324F"/>
  <circle cx="1438" cy="172" r="58" fill="#D97624" fill-opacity="0.16"/>
  <circle cx="1298" cy="702" r="102" fill="#D97624" fill-opacity="0.12"/>
  <rect x="104" y="126" width="280" height="44" rx="22" fill="#D97624" fill-opacity="0.14"/>
  <text x="124" y="156" font-family="Arial, Helvetica, sans-serif" font-size="26" font-weight="700" fill="#D97624">Russia Admission Guide</text>
  <text x="104" y="250" font-family="Arial, Helvetica, sans-serif" font-size="72" font-weight="700" fill="#16324F">MBBS in Russia</text><text x="104" y="344" font-family="Arial, Helvetica, sans-serif" font-size="72" font-weight="700" fill="#16324F">Admission 2026</text>
  <text x="104" y="480" font-family="Arial, Helvetica, sans-serif" font-size="34" font-weight="500" fill="#42566B">Long-form organic-traffic guide for Indian medical aspirants</text>
  <rect x="104" y="560" width="920" height="2" fill="#D7CFC1"/>
  
        <rect x="104" y="660" rx="20" ry="20" width="200" height="58" fill="#FFFFFF" stroke="#D97624" stroke-width="2" />
        <text x="204" y="698" text-anchor="middle" font-family="Arial, Helvetica, sans-serif" font-size="28" font-weight="700" fill="#16324F">Eligibility</text>
      
        <rect x="334" y="660" rx="20" ry="20" width="200" height="58" fill="#FFFFFF" stroke="#D97624" stroke-width="2" />
        <text x="434" y="698" text-anchor="middle" font-family="Arial, Helvetica, sans-serif" font-size="28" font-weight="700" fill="#16324F">Documents</text>
      
        <rect x="564" y="660" rx="20" ry="20" width="200" height="58" fill="#FFFFFF" stroke="#D97624" stroke-width="2" />
        <text x="664" y="698" text-anchor="middle" font-family="Arial, Helvetica, sans-serif" font-size="28" font-weight="700" fill="#16324F">Timeline</text>
      
  <text x="1186" y="214" font-family="Arial, Helvetica, sans-serif" font-size="28" font-weight="700" fill="#FFFFFF">Students Traffic</text>
  <text x="1186" y="254" font-family="Arial, Helvetica, sans-serif" font-size="22" font-weight="500" fill="#D7E1EA">Study Abroad Insights</text>
  <rect x="1186" y="310" width="256" height="1" fill="#46627D"/>
  <text x="1186" y="382" font-family="Arial, Helvetica, sans-serif" font-size="24" font-weight="700" fill="#FFFFFF">Why this guide matters</text>
  <text x="1186" y="432" font-family="Arial, Helvetica, sans-serif" font-size="22" font-weight="500" fill="#D7E1EA">Clearer decisions.</text>
  <text x="1186" y="468" font-family="Arial, Helvetica, sans-serif" font-size="22" font-weight="500" fill="#D7E1EA">Cleaner selections.</text>
  <text x="1186" y="504" font-family="Arial, Helvetica, sans-serif" font-size="22" font-weight="500" fill="#D7E1EA">Fewer costly mistakes.</text>
  <rect x="1186" y="584" width="210" height="56" rx="18" fill="#D97624"/>
  <text x="1291" y="620" text-anchor="middle" font-family="Arial, Helvetica, sans-serif" font-size="24" font-weight="700" fill="#FFFFFF">Russia 2026</text>
  <rect x="1186" y="678" width="214" height="56" rx="18" fill="#FFFFFF" fill-opacity="0.10" stroke="#7D94AA" stroke-width="2"/>
  <text x="1293" y="714" text-anchor="middle" font-family="Arial, Helvetica, sans-serif" font-size="22" font-weight="700" fill="#FFFFFF">Editorial Cover</text>
</svg>