<svg width="1600" height="900" viewBox="0 0 1600 900" fill="none" xmlns="http://www.w3.org/2000/svg">
  <defs>
    <linearGradient id="bg" x1="180" y1="80" x2="1420" y2="820" gradientUnits="userSpaceOnUse">
      <stop stop-color="#0E332F"/>
      <stop offset="0.55" stop-color="#123F39"/>
      <stop offset="1" stop-color="#1A5751"/>
    </linearGradient>
    <radialGradient id="warm" cx="0" cy="0" r="1" gradientUnits="userSpaceOnUse" gradientTransform="translate(1180 170) rotate(133.171) scale(532.698 355.235)">
      <stop stop-color="#F08A4B" stop-opacity="0.82"/>
      <stop offset="1" stop-color="#F08A4B" stop-opacity="0"/>
    </radialGradient>
    <radialGradient id="cool" cx="0" cy="0" r="1" gradientUnits="userSpaceOnUse" gradientTransform="translate(230 770) rotate(-20.4493) scale(544.645 314.778)">
      <stop stop-color="#8BD0C4" stop-opacity="0.24"/>
      <stop offset="1" stop-color="#8BD0C4" stop-opacity="0"/>
    </radialGradient>
    <filter id="shadow" x="80" y="119" width="1440" height="662" filterUnits="userSpaceOnUse" color-interpolation-filters="sRGB">
      <feFlood flood-opacity="0" result="BackgroundImageFix"/>
      <feColorMatrix in="SourceAlpha" type="matrix" values="0 0 0 0 0 0 0 0 0 0 0 0 0 0 0 0 0 0 127 0" result="hardAlpha"/>
      <feOffset dy="24"/>
      <feGaussianBlur stdDeviation="40"/>
      <feColorMatrix type="matrix" values="0 0 0 0 0.021875 0 0 0 0 0.114338 0 0 0 0 0.104056 0 0 0 0.24 0"/>
      <feBlend mode="normal" in2="BackgroundImageFix" result="effect1_dropShadow_1_2"/>
      <feBlend mode="normal" in="SourceGraphic" in2="effect1_dropShadow_1_2" result="shape"/>
    </filter>
  </defs>
  <rect width="1600" height="900" fill="url(#bg)"/>
  <rect width="1600" height="900" fill="url(#warm)"/>
  <rect width="1600" height="900" fill="url(#cool)"/>
  <g opacity="0.08">
    <path d="M0 84H1600" stroke="white"/>
    <path d="M0 168H1600" stroke="white"/>
    <path d="M0 252H1600" stroke="white"/>
    <path d="M0 336H1600" stroke="white"/>
    <path d="M0 420H1600" stroke="white"/>
    <path d="M0 504H1600" stroke="white"/>
    <path d="M0 588H1600" stroke="white"/>
    <path d="M0 672H1600" stroke="white"/>
    <path d="M0 756H1600" stroke="white"/>
    <path d="M160 0V900" stroke="white"/>
    <path d="M320 0V900" stroke="white"/>
    <path d="M480 0V900" stroke="white"/>
    <path d="M640 0V900" stroke="white"/>
    <path d="M800 0V900" stroke="white"/>
    <path d="M960 0V900" stroke="white"/>
    <path d="M1120 0V900" stroke="white"/>
    <path d="M1280 0V900" stroke="white"/>
    <path d="M1440 0V900" stroke="white"/>
  </g>
  <g filter="url(#shadow)">
    <rect x="160" y="175" width="1280" height="502" rx="32" fill="rgba(255,255,255,0.06)"/>
    <rect x="160.5" y="175.5" width="1279" height="501" rx="31.5" stroke="rgba(255,255,255,0.12)"/>
  </g>
  <rect x="214" y="237" width="248" height="44" rx="22" fill="#F08A4B" fill-opacity="0.16"/>
  <rect x="214.75" y="237.75" width="246.5" height="42.5" rx="21.25" stroke="#F08A4B" stroke-opacity="0.4" stroke-width="1.5"/>
  <text x="255" y="265" fill="#F5B386" font-family="Arial, Helvetica, sans-serif" font-size="18" font-weight="700" letter-spacing="3.8">NEET 2026 UPDATE</text>
  <text x="214" y="367" fill="white" font-family="Georgia, 'Times New Roman', serif" font-size="86" font-weight="700">Paper Analysis and</text>
  <text x="214" y="460" fill="white" font-family="Georgia, 'Times New Roman', serif" font-size="86" font-weight="700">Expected Cutoff</text>
  <text x="214" y="551" fill="#D1E4E1" font-family="Arial, Helvetica, sans-serif" font-size="31" font-weight="500">What students should do after the May 3, 2026 exam</text>
  <rect x="1080" y="248" width="226" height="174" rx="24" fill="rgba(255,255,255,0.06)"/>
  <rect x="1080.5" y="248.5" width="225" height="173" rx="23.5" stroke="rgba(255,255,255,0.14)"/>
  <text x="1116" y="304" fill="#9FD7CF" font-family="Arial, Helvetica, sans-serif" font-size="20" font-weight="700" letter-spacing="2.4">FOCUS AREAS</text>
  <text x="1116" y="347" fill="white" font-family="Arial, Helvetica, sans-serif" font-size="26" font-weight="700">Official status</text>
  <text x="1116" y="383" fill="white" fill-opacity="0.86" font-family="Arial, Helvetica, sans-serif" font-size="26" font-weight="700">Expected cutoff</text>
  <text x="1116" y="419" fill="white" fill-opacity="0.74" font-family="Arial, Helvetica, sans-serif" font-size="26" font-weight="700">Next decision steps</text>
  <rect x="1080" y="456" width="226" height="132" rx="24" fill="#F4F0EA"/>
  <text x="1115" y="510" fill="#15433D" font-family="Arial, Helvetica, sans-serif" font-size="18" font-weight="700" letter-spacing="2.2">STUDENTS TRAFFIC</text>
  <text x="1115" y="552" fill="#123A35" font-family="Georgia, 'Times New Roman', serif" font-size="36" font-weight="700">India MBBS</text>
  <text x="1115" y="589" fill="#123A35" font-family="Georgia, 'Times New Roman', serif" font-size="36" font-weight="700">Decision Guide</text>
</svg>
